<svg xmlns="http://www.w3.org/2000/svg" viewBox="0 0 980 980" fill="none" shape-rendering="auto"><metadata xmlns:rdf="http://www.w3.org/1999/02/22-rdf-syntax-ns#" xmlns:xsi="http://www.w3.org/2001/XMLSchema-instance" xmlns:dc="http://purl.org/dc/elements/1.1/" xmlns:dcterms="http://purl.org/dc/terms/"><rdf:RDF><rdf:Description><dc:title>Lorelei</dc:title><dc:creator>Lisa Wischofsky</dc:creator><dc:source xsi:type="dcterms:URI">https://www.figma.com/community/file/1198749693280469639</dc:source><dcterms:license xsi:type="dcterms:URI">https://creativecommons.org/publicdomain/zero/1.0/</dcterms:license><dc:rights>Remix of „Lorelei” (https://www.figma.com/community/file/1198749693280469639) by „Lisa Wischofsky”, licensed under „CC0 1.0” (https://creativecommons.org/publicdomain/zero/1.0/)</dc:rights></rdf:Description></rdf:RDF></metadata><mask id="viewboxMask"><rect width="980" height="980" rx="0" ry="0" x="0" y="0" fill="#fff" /></mask><g mask="url(#viewboxMask)"><rect fill="#a08010" width="980" height="980" x="0" y="0" /><g transform="translate(10 -60)"><path d="M632 187c17 9 33 22 41 40 9 17 10 35 7 53 15 14 22 34 24 54 1 9 2 20-2 30-1 3-3 8-7 11l-4 1-10-8c-9-12-16-24-23-37-7 10-17 19-28 24l-6-3c-9-5-14-17-23-21l-5 18c-1 3-3 6-6 6-6-1-12-3-17-6-22-10-45-20-69-27 2 6 3 12 1 18 0 2-2 4-4 6h-14a188 188 0 0 0-69 0c-6 1-12 5-19 7l-48 20-12 26c-5 12-9 25-12 37-1 3-2 7-1 10 2 4 7 5 9 9v5c-4 10-6 22-7 33-3 16-3 33-3 49v21c0 3-3 6-7 6-4 1-8 0-12-2l19 14c3 2 5 4 5 8-1 2-4 3-6 4 3 1 5 2 6 5 2 3 1 6-2 8-5 3-12 1-16-2-2-3-5-7-5-11 1-2 3-2 5-3-6-3-10-7-15-11-11-9-25-15-37-22l-11-7-4-7a322 322 0 0 1-24-121c1-20 5-41 11-61 5-13 11-26 20-36 7-10 16-18 28-22-3-10-4-20 0-29 4-15 15-27 29-35 18-10 37-16 57-20 27-5 56-8 83-12 26-4 52-11 78-18 19-5 38-10 58-11 16 0 32 2 47 9Z" fill="#000000"/><path d="M528 244c41 6 80 22 113 47 28 21 50 49 65 81 13 28 20 60 19 91-1 15-3 30-8 44h-2l1-21c1-30-2-59-13-87-10-30-28-57-50-79-42-40-98-62-156-63a243 243 0 0 0-196 94 207 207 0 0 0-40 139l2 25c8 0 19 0 25 7l-3 3-17 1c-12 1-24 5-33 13a64 64 0 0 0-17 39c-5 32 12 65 39 83 16 10 36 15 55 9 4-2 9-5 14-3 3 1 4 4 5 7a251 251 0 0 0 90 100c8 7 18 13 28 18 18 8 38 14 57 19l32 8c5 1 9 1 13 3l-4 1c-25 2-48-3-72-10-12-3-23-7-34-12a306 306 0 0 1-84-63l2 28c1 17 0 35-6 52-4 12-11 24-19 34-10 10-22 19-34 26-10 7-21 14-32 18l-16 5 9-9 31-20 22-17a95 95 0 0 0 32-56c2-14 2-28 2-43v-27c-10-14-22-29-27-46-17 8-38 7-55-1-17-7-32-19-43-33-12-17-19-36-21-56s2-40 15-56c9-10 22-18 35-21-4-14-6-29-6-44a234 234 0 0 1 83-173 249 249 0 0 1 199-55Z" fill="#000"/><path d="M653 320c22 22 40 49 50 79 11 28 14 57 13 87l-1 21-5 15-2 13 2 56c0 21 1 42-1 63l-3 47c-2 16-7 31-14 45-11 18-26 33-44 44-13 8-27 12-41 16l-38 11-17 3c0 1 1 2 3 2 8 5 17 5 26 4-3 7-4 14-2 22 3 7 11 11 17 14 12 6 24 7 36 9 7 6 14 14 16 24 2 8 2 16-2 23-5 10-14 18-24 23-13 8-27 14-42 18a468 468 0 0 1-222-1c-17-4-33-9-48-17-12-6-23-13-32-22-5-7-9-14-10-23 11-4 22-11 32-18 12-7 24-16 34-26 8-10 15-22 19-34 6-17 7-35 6-52l-2-28 22 23c19 15 40 30 62 40 11 5 22 9 34 12 24 7 47 12 72 10l4-1c-4-2-8-2-13-3l-32-8c-19-5-39-11-57-19l-29-17c-11-9-23-17-33-27a251 251 0 0 1-56-74c-1-3-2-6-5-7-5-2-10 1-14 3-19 6-39 1-55-9a88 88 0 0 1-39-83c1-14 7-28 17-39 9-8 21-12 33-13l17-1 3-3c-6-7-17-7-25-7l-2-25a207 207 0 0 1 40-139 243 243 0 0 1 196-94c58 1 114 23 156 63Z" fill="#ffffff"/><path d="M710 522c3 0 3 4 4 6 3 11 4 23 5 34l2 21c1 22 2 43 1 65-1 21-1 44-5 65a136 136 0 0 1-80 99c-15 7-31 11-48 13v15c1 3 3 4 5 6 12 6 23 8 36 11 12 3 24 5 36 11-3 3-7 4-11 4-7 1-15-1-23-1-12-2-24-3-36-9-6-3-14-7-17-14-2-8-1-15 2-22-9 1-18 1-26-4-2 0-3-1-3-2l17-3 38-11c14-4 28-8 41-16 18-11 33-26 44-44 7-14 12-29 14-45l3-47c2-21 1-42 1-63l-2-56 2-13ZM252 549c8 0 17 1 23 7 5 4 10 9 12 15 1 3 0 6-2 8l-13 8c-7 6-7 19 0 25 6 5 14 8 21 11 2 0 5 1 6 3-1 2-3 3-5 3-10 0-20-3-28-9-5-3-8-8-9-13-2-8-2-17 4-24 4-6 11-9 18-12-4-5-7-11-14-13-7-3-15-3-22-5l9-4Z" fill="#000"/><path d="M623 498c2-1 5 2 6 3 8 8 19 13 30 13 5 0 11-1 16-3 2-2 4-5 7-6s7 0 9 2c4 3 4 10 0 13-5 7-14 10-22 11-10 1-21-2-30-8-8-4-14-10-17-18-1-3-2-6 1-7ZM530 500l3-1c3 2 1 5 0 7a97 97 0 0 1-50 38c-24 8-52 4-72-12-2-3-4-6-3-10s4-7 8-7c3 0 6 2 8 4 8 5 16 9 25 10 12 2 23 0 34-3 13-4 25-12 36-20 4-2 7-5 11-6Z" fill="#000000"/><path d="m688 421 1 2-13 14c-7 6-14 10-22 14l-26 19-13 6-9 1-10 20-1 1-1-1c-2-5 0-13 1-19 2-6 2-12 8-16 3-3 7-3 10-5l31-20c8-6 16-11 25-13l19-3ZM371 430c9 0 19 0 28 2 9 1 17 4 26 6 5 2 10 1 15 2 8 0 15-1 23 2 8 2 16 3 23 6 12 3 24 5 35 11 0-2 0-4 2-6 2-1 5 0 6 2 5 7 8 17 11 25 1 4-2 9-6 9-5 1-8-4-12-6-5-2-7-7-12-9l-30-9-19-5-15-3-15-4-24-9-30-9-6-5Z" fill="#000000"/><path d="m591 528 2 2 7 22c4 8 10 15 15 23 4 6 6 13 5 20-1 6-4 12-9 16-7 7-16 12-25 16-5 3-11 4-17 2l5-4c11-9 25-14 36-24 2-2 4-6 4-9-1-7-5-11-8-16-5-9-10-16-13-25-2-7-4-16-2-23Z" fill="#000000"/><path d="M599 665c5 0 10 3 13 7 3 6 4 13 5 20 1 11-1 23-6 33-5 9-13 13-22 15-11 3-23 3-34 3-4 0-9-1-13-3 7-3 13-3 20-4l21-3c6-1 14-4 18-9s6-12 7-19l-4 6c-4 3-9 3-14 4l-26 4c-7 1-15 3-23 0l-11 23c-3 1-3-2-3-4 0-7 3-14 6-20 7-17 21-32 36-42 9-6 19-11 30-11Z" fill="#000000"/><path d="M617 181c12 4 24 10 34 18 12 10 22 23 27 38a105 105 0 0 1-16 90c-8 11-19 22-32 28-8-2-12-7-17-13-3-4-7-9-12-11l-4 16c-1 2-2 6-5 7-2 3-7 0-10-1l-36-16-42-15c2 6 2 12 1 18 0 2-2 4-4 6h-14c-14-3-29-4-43-3-23 1-46 8-69 13l-18 1-11 27c-8 17-14 34-19 52-1 3-2 7-1 10 2 4 7 5 9 8v5c-4 10-6 21-7 32-3 18-3 36-3 55v17c0 3-4 6-7 6-4 1-8 0-12-2l20 14c2 2 4 5 4 8-1 2-4 3-6 4 3 1 7 3 7 7s-3 6-6 7c-7 2-16-4-18-12 0-3 1-5 5-5-8-4-14-10-18-17-3-4-5-9-5-14 1-2 4 0 6 0-7-6-14-13-19-20-1-3-4-3-6-3l-24-6c-2-1-6-1-7-4l-5-17-8-43a370 370 0 0 1-1-71l7-31a118 118 0 0 1 49-59c-4-10-5-19-2-29 4-15 14-27 28-35 17-11 37-17 57-21 28-6 57-9 85-13 26-4 51-10 76-17l36-9c19-3 37-4 56 0Z" fill="#000000"/></g><g transform="translate(10 -60)"></g></g></svg>