<svg xmlns="http://www.w3.org/2000/svg" viewBox="0 0 980 980" fill="none" shape-rendering="auto"><metadata xmlns:rdf="http://www.w3.org/1999/02/22-rdf-syntax-ns#" xmlns:xsi="http://www.w3.org/2001/XMLSchema-instance" xmlns:dc="http://purl.org/dc/elements/1.1/" xmlns:dcterms="http://purl.org/dc/terms/"><rdf:RDF><rdf:Description><dc:title>Lorelei</dc:title><dc:creator>Lisa Wischofsky</dc:creator><dc:source xsi:type="dcterms:URI">https://www.figma.com/community/file/1198749693280469639</dc:source><dcterms:license xsi:type="dcterms:URI">https://creativecommons.org/publicdomain/zero/1.0/</dcterms:license><dc:rights>Remix of „Lorelei” (https://www.figma.com/community/file/1198749693280469639) by „Lisa Wischofsky”, licensed under „CC0 1.0” (https://creativecommons.org/publicdomain/zero/1.0/)</dc:rights></rdf:Description></rdf:RDF></metadata><mask id="viewboxMask"><rect width="980" height="980" rx="0" ry="0" x="0" y="0" fill="#fff" /></mask><g mask="url(#viewboxMask)"><rect fill="#22a855" width="980" height="980" x="0" y="0" /><g transform="translate(10 -60)"><path d="m405 197-2 7-4 12c17-4 33-6 50-7 20-1 41 0 62 3 18 2 36 7 54 11l57 17c15 4 30 8 46 10 4 1 7 1 10 4l-3 4c-2 3-5 3-8 5 10 7 19 15 27 23l16 20c3 4 6 9 7 14v5l-13 7c4 12 8 24 8 37 0 10 1 21-3 31-1 3-1 6-4 7-4 1-7-2-9-5a328 328 0 0 1-42-64l-14-3 6 10c1 1 3 3 2 5-1 3-4 3-7 4-14 3-30 1-44-2-22-6-43-14-64-23l-24-13c-5-1-9-4-13-6-3-1-6-2-7-5l6-7-2-3c-3-1-7 1-11 1-6 0-12 1-17 3l2-12c0-2-3-4-4-2-4 2-6 5-9 8l-10 12-3 1-24-6-8 1c-2 1-2 3 0 4 3 4 6 7 8 12 0 9-5 17-10 24-9 11-19 21-31 29l-21 14c-4 2-6 5-6 8l-1 29c0 3 0 6-2 9-15 15-28 32-34 53-4 15-3 29-2 44v21l-1 9c-1 4-4 7-8 8-10 3-20 8-32 8-5 0-7 4-12 2s-6-7-8-11c-21-46-31-96-27-147 2-29 9-58 22-84 11-23 26-44 45-61a194 194 0 0 1 57-34l5-2a176 176 0 0 1 48-40c2-1 5-1 6 1Z" fill="#000000"/><path d="M495 234c28 1 56 6 84 15a201 201 0 0 1 100 65c19 25 31 55 35 86a361 361 0 0 1 2 101l-5 34-4 20c-1 2-1 2-3 2-2-4-2-8-2-12-1-15 1-29 2-44 1-24 3-48 1-72l-6-45c-7-28-20-54-40-75-18-18-40-33-63-43-22-9-44-15-67-19-18-3-36-4-54-4a277 277 0 0 0-128 29c-13 9-25 20-35 32a276 276 0 0 0-55 139c-1 24 0 47 8 70l7 15 12 1 1 3c-3 2-7 2-11 3-10 2-20 6-29 12-7 5-14 11-18 19-5 10-3 22-1 33 5 19 17 37 33 49 11 9 25 14 39 16 10 2 20 0 30-1 5 4 8 12 11 17l18 27a136 136 0 0 0 66 50c22 9 45 14 68 19l41 8 17 5v4h-12a535 535 0 0 1-67-8 255 255 0 0 1-84-33c-11-7-21-16-29-27a214 214 0 0 1-16 123c-15 27-40 48-70 57-3 1-7 2-10 1-2 0-2-1-2-3 1-3 4-5 6-6 12-8 26-14 38-23 13-11 24-23 31-38 6-15 10-32 12-49 2-13 3-26 2-40l-4-38-18-36-19 4a88 88 0 0 1-75-38 93 93 0 0 1-20-58c0-9 3-18 8-25s12-13 19-17c5-4 12-6 18-8l-9-24c-5-22-5-45-2-67a292 292 0 0 1 63-149c9-10 18-19 29-26 7-4 14-5 20-9 43-19 90-25 137-22Z" fill="#000"/><path d="M475 243a276 276 0 0 1 121 23c23 10 45 25 63 43 20 21 33 47 40 75l6 45c2 24 0 48-1 72-1 15-3 29-2 44 0 4 0 8 2 12l-1 20c-2 5-2 10-2 16-2 24-2 49-6 74-1 12-3 25-8 36-3 9-8 17-15 24-12 13-27 24-43 33-19 11-39 16-58 24-5 2-10 4-13 8 8 1 15 0 23-2-5 12-6 24-6 36 0 5-1 11 1 16 3 5 8 9 13 12l35 13c22 8 43 18 65 27 2 4 5 7 6 12 6 11 7 23 3 35-5 13-15 24-27 31-16 11-36 19-55 24a494 494 0 0 1-235-7c-20-7-40-14-58-24-14-8-29-18-40-31-6-8-11-19-12-29a122 122 0 0 0 86-107c4-24 4-49 0-73 8 11 18 20 29 27l27 14a331 331 0 0 0 124 27h12v-4l-17-5-41-8c-23-5-46-10-68-19-13-6-27-13-39-21-10-9-19-18-27-29l-18-27c-3-5-6-13-11-17-10 1-20 3-30 1-14-2-28-7-39-16a94 94 0 0 1-33-49c-2-11-4-23 1-33 4-8 11-14 18-19 9-6 19-10 29-12 4-1 8-1 11-3l-1-3-12-1-7-15c-8-23-9-46-7-70a276 276 0 0 1 54-139c10-12 22-23 35-32a277 277 0 0 1 128-30Z" fill="#ffffff"/><path d="M260 571c4 0 7 0 11 2 5 1 11 4 14 8 2 3 2 7 0 10-5 6-12 10-16 16 6 4 14 6 21 9 4 1 8 3 11 6l1 3-8-2-24-7c-4-1-8-3-9-7-1-3 1-7 3-10l15-13c-4-7-15-8-19-15ZM703 577l2 3 2 16a483 483 0 0 1-2 89c-2 11-5 23-10 33a198 198 0 0 1-106 71c-1 14-3 31-2 47l5 5c8 6 18 9 27 12a451 451 0 0 1 68 28c7 4 13 9 18 15-5 1-10-1-16-2-22-9-43-19-65-27l-35-13c-5-3-10-7-13-12-2-5-1-11-1-16 0-12 1-24 6-36-8 2-15 3-23 2 3-4 8-6 13-8 19-8 39-13 58-24 16-9 31-20 43-33 7-7 12-15 15-24 5-11 7-24 8-36 4-25 4-50 6-74 0-6 0-11 2-16Z" fill="#000"/><path d="M668 488c8 0 16 4 22 10 2 3 5 8 4 12 0 3-4 5-4 8-2 8-9 14-16 18-4 2-11 2-14-2-3-3-3-8-4-12 0-8 3-17 6-24-4 0-8 2-11 5-11 6-19 17-24 28-2 3-3 8-6 10-1 1-3 1-4-1v-9c4-13 12-25 22-34 9-6 19-9 29-9ZM444 498c20-1 43 2 60 13 9 5 17 13 20 23 2 4 0 7-2 11-2 3-7 5-11 7-12 3-24 1-36-1-5-1-11-2-14-6-4-5-3-11-1-17 1-7 3-14 9-20h-23c-17 2-33 9-47 20-2 2-5 4-8 3-5 0-8-5-7-9s4-6 7-8c16-10 35-14 53-16Z" fill="#000000"/><path d="M496 375c10 1 20 4 27 11 3 3 5 7 6 11-11-5-22-6-33-6-6 1-12 4-17 7-23 12-43 29-66 41l-20 14-11 11c-1-5 1-10 2-14 4-10 11-17 19-24l24-17c13-9 27-19 41-26 9-4 18-8 28-8ZM701 411c-6 3-11 3-17 4-5 1-10 3-14 6-9 7-17 15-24 24-9 10-17 18-29 24l-7 2c-2 1-4 0-6 2-4 5-4 13-9 17-2 0-2-2-2-3v-13c1-5 3-12 7-16s9-4 13-8l15-10 23-18c6-5 13-10 20-13 10-3 21-3 30 2Z" fill="#000000"/><path d="M676 575c3-2 7 0 7 4 0 3-3 4-6 4-3-1-4-6-1-8ZM366 583c2-1 5 0 7 1 2 3 2 7 0 10-3 2-6 2-9 0-3-3-2-9 2-11ZM624 584c1-1 4-1 5 1 0 2 0 4-2 4-3 1-5-3-3-5ZM649 584c5-2 10 3 8 7s-7 6-10 3-2-8 2-10ZM475 586c2-1 6 1 5 3 1 2-1 4-4 4-3-1-3-5-1-7ZM691 587c3-2 7 0 7 3 1 3-3 5-6 4-2-1-2-5-1-7ZM412 587c5 0 8 6 6 10-1 2-4 3-6 4-2-1-5-2-6-4-2-4 2-10 6-10ZM339 595c4-1 7 1 7 5-1 4-5 5-8 3-2-2-2-6 1-8ZM670 600c4-2 8 1 8 5s-5 7-8 4c-3-2-3-7 0-9ZM450 604c3 0 3 2 5 4l-2 3c-3 3-7 1-8-2 0-3 2-6 5-5ZM384 617c4 0 7 2 8 6 0 4-3 8-7 8-3 0-6-2-7-5-1-4 2-9 6-9Z" fill="#000000"/><path d="M607 606c0 3-2 6-4 9-4 6-11 10-18 12-5 1-9-2-13 0-4 0-8 1-12-1-2-1-2-4 0-6 3-4 8-7 12-7 4-1 7-1 10 2l1 7c5-2 7-5 11-8l13-8Z" fill="#000000"/><path d="M497 679c8 3 15 5 22 9 4 1 7 3 11 3l13-2c5-1 10-1 14 3 7 5 8 17 2 23s-16 7-24 9c-6 1-13 1-19-2-4-1-6-3-8-6l5-4c6-2 13 1 19 0l15-3 5-4c0-2-1-5-4-5-7-1-13 4-20 3-9-1-16-7-25-10-4-2-9-5-14-5-4 0-6 3-7 6-2 4-3 9-1 13-2 3-5 1-7-1-4-8-1-19 6-25 5-3 12-3 17-2Z" fill="#000000"/><path d="M404 197c2 2 0 5-1 7l-4 12a338 338 0 0 1 135 0c28 6 55 14 82 22 17 5 33 9 51 12 4 0 8 1 11 4l-4 5-7 4c15 11 30 24 41 39 4 6 8 12 10 19 1 3-1 4-3 6l-18 7c-18 7-38 5-57 1 2 4 3 7 6 9 1 2 3 3 2 6s-5 3-7 4c-14 3-30 1-44-2-22-6-44-14-65-24l-39-19-5-4 7-7-2-3-15 1-14 3 3-12c1-2-1-3-3-3l-5 4-13 13-3 5-5-1c-8-3-17-5-25-5-3 0-6 1-5 4 3 5 7 7 9 13 0 8-5 17-10 24-9 11-19 21-30 29l-22 14c-4 2-6 4-6 8l-1 30c0 3 0 7-3 9-14 14-27 32-32 51-4 14-4 27-3 41v27c-1 2-1 6-4 7l-7-2-19-7a85 85 0 0 1-38-40c-6-13-10-26-13-40a228 228 0 0 1 3-104 178 178 0 0 1 72-102c13-10 28-19 44-24l4-3a162 162 0 0 1 46-39c3-1 5-1 6 1Z" fill="#000000"/></g><g transform="translate(10 -60)"></g></g></svg>